<?xml version="1.0" encoding="utf-8"?>
<!-- Generator: Adobe Illustrator 25.2.0, SVG Export Plug-In . SVG Version: 6.00 Build 0)  -->
<svg version="1.1" id="Warstwa_1" xmlns="http://www.w3.org/2000/svg" xmlns:xlink="http://www.w3.org/1999/xlink" x="0px" y="0px"
	 viewBox="0 0 55.3 78.2" style="enable-background:new 0 0 55.3 78.2;" xml:space="preserve">
<style type="text/css">
	.st0{fill-rule:evenodd;clip-rule:evenodd;fill:#3462AC;}
</style>
<path class="st0" d="M9.1,32c0.9-9.5,8.8-16.9,18.2-17.3C38.2,14.4,47,23.1,47,33.9c0,1.2-0.1,2.5-0.3,3.6c0,0,0,0.2-0.1,0.6
	c-0.3,1.3-0.7,2.6-1.3,3.8c-1.9,4.6-6.3,12.2-16.2,20.4c-0.6,0.5-1.5,0.5-2.1,0c-9.9-8.3-14.3-15.9-16.2-20.4
	c-0.5-1.2-1-2.5-1.3-3.8c-0.1-0.4-0.1-0.6-0.1-0.6C9.1,35.8,9,33.9,9.1,32z M18.8,34.1c0,5.1,4.1,9.3,9.2,9.3s9.2-4.2,9.2-9.3
	s-4.1-9.3-9.2-9.3S18.8,29,18.8,34.1z"/>
</svg>
